<svg width="900" height="600" viewBox="0 0 900 600" fill="none" xmlns="http://www.w3.org/2000/svg">
<g clip-path="url(#clip0_8_25)">
<path d="M0 439L30 435.2C60 431.3 120 423.7 180 410.7C240 397.7 300 379.3 360 381.3C420 383.3 480 405.7 540 412.7C600 419.7 660 411.3 720 410.2C780 409 840 415 870 418L900 421V601H870C840 601 780 601 720 601C660 601 600 601 540 601C480 601 420 601 360 601C300 601 240 601 180 601C120 601 60 601 30 601H0V439Z" fill="#8369FA"/>
<path d="M0 423L30 417.3C60 411.7 120 400.3 180 403C240 405.7 300 422.3 360 421.5C420 420.7 480 402.3 540 409C600 415.7 660 447.3 720 457.2C780 467 840 455 870 449L900 443V601H870C840 601 780 601 720 601C660 601 600 601 540 601C480 601 420 601 360 601C300 601 240 601 180 601C120 601 60 601 30 601H0V423Z" fill="#7358EE"/>
<path d="M0 471L30 464.7C60 458.3 120 445.7 180 439.8C240 434 300 435 360 435.5C420 436 480 436 540 446.5C600 457 660 478 720 480.2C780 482.3 840 465.7 870 457.3L900 449V601H870C840 601 780 601 720 601C660 601 600 601 540 601C480 601 420 601 360 601C300 601 240 601 180 601C120 601 60 601 30 601H0V471Z" fill="#6247E1"/>
<path d="M0 475L30 475.5C60 476 120 477 180 483.7C240 490.3 300 502.7 360 514C420 525.3 480 535.7 540 538.2C600 540.7 660 535.3 720 531.5C780 527.7 840 525.3 870 524.2L900 523V601H870C840 601 780 601 720 601C660 601 600 601 540 601C480 601 420 601 360 601C300 601 240 601 180 601C120 601 60 601 30 601H0V475Z" fill="#5036D4"/>
<path d="M0 567L30 562.7C60 558.3 120 549.7 180 544.5C240 539.3 300 537.7 360 542.5C420 547.3 480 558.7 540 556.3C600 554 660 538 720 537.5C780 537 840 552 870 559.5L900 567V601H870C840 601 780 601 720 601C660 601 600 601 540 601C480 601 420 601 360 601C300 601 240 601 180 601C120 601 60 601 30 601H0V567Z" fill="#3D24C7"/>
</g>
<defs>
<clipPath id="clip0_8_25">
<rect width="900" height="600" fill="white"/>
</clipPath>
</defs>
</svg>
